<svg xmlns="http://www.w3.org/2000/svg" xmlns:xlink="http://www.w3.org/1999/xlink" version="1.2" viewBox="0 0 50 40">

<!-- Bar line -->
<rect transform="translate(0, 2)" width="0.1" height="4" fill="currentColor"/>

<!-- Staff (top to bottom) -->
<line transform="translate(0, 2)" stroke-width="0.1" stroke="currentColor" x1="0" y1="0" x2="20.1" y2="0"/>
<line transform="translate(0, 3)" stroke-width="0.1" stroke="currentColor" x1="0" y1="0" x2="20.1" y2="0"/>
<line transform="translate(0, 4)" stroke-width="0.1" stroke="currentColor" x1="0" y1="0" x2="20.1" y2="0"/>
<line transform="translate(0, 5)" stroke-width="0.1" stroke="currentColor" x1="0" y1="0" x2="20.1" y2="0"/>
<line transform="translate(0, 6)" stroke-width="0.1" stroke="currentColor" x1="0" y1="0" x2="20.1" y2="0"/>

<!-- Treble (G) Clef -->
<path transform="translate(1, 5) scale(0.0040, -0.0040)" d="M643 2c0 -102 -65 -214 -190 -248c0 -13 1 -27 1 -40c0 -46 -1 -92 -4 -138c-7 -119 -92 -227 -214 -227c-111 0 -202 92 -202 205c0 58 54 104 113 104c54 0 95 -48 95 -104c0 -52 -43 -95 -95 -95c-13 0 -27 4 -39 10c26 -47 74 -80 130 -80c100 0 166 94 172 193 c3 44 4 89 4 133v31c-31 -5 -63 -6 -79 -6c-189 0 -333 173 -333 372c0 181 134 314 254 451c-37 129 -54 211 -54 379c0 197 147 308 159 308c25 0 151 -219 151 -388c0 -150 -90 -267 -190 -380c22 -73 42 -147 61 -221h6c154 0 254 -127 254 -259zM452 -207 c66 20 124 84 124 170c0 90 -64 178 -168 192c27 -129 40 -239 44 -362zM338 -220c7 0 45 1 75 5c-4 127 -19 241 -47 372c-87 -5 -136 -62 -136 -124c0 -45 26 -92 83 -125c4 -4 7 -9 7 -14c0 -11 -9 -21 -20 -21c-15 0 -125 63 -125 186c0 90 61 178 168 198 c-16 64 -35 127 -53 190c-110 -124 -220 -249 -220 -414c0 -149 144 -253 268 -253zM409 1108c-100 -55 -162 -159 -162 -273c0 -94 27 -190 40 -236c86 102 158 209 158 342c0 77 -11 110 -36 167z" fill="currentColor"/>

<!-- Sharps -->
<path transform="translate(4,  2  ) scale(0.0040, -0.0040)" d="M215 -316c0 -9 -8 -17 -17 -17s-17 8 -17 17v151l-87 -31v-162c0 -9 -8 -17 -17 -17s-17 8 -17 17v150l-39 -13c-10 -4 -21 4 -21 15v64c0 7 5 13 11 15l49 18v164l-39 -14c-10 -4 -21 4 -21 15v65c0 7 5 13 11 15l49 17v163c0 9 8 17 17 17s17 -8 17 -17v-151l87 31v162 c0 9 8 17 17 17s17 -8 17 -17v-150l39 13c10 4 21 -4 21 -15v-64c0 -7 -5 -13 -11 -15l-49 -18v-164l39 14c10 4 21 -4 21 -15v-65c0 -7 -5 -13 -11 -15l-49 -17v-163zM181 97l-87 -30v-164l87 30v164z" fill="currentColor"/>
<path transform="translate(6,  3.5) scale(0.0040, -0.0040)" d="M215 -316c0 -9 -8 -17 -17 -17s-17 8 -17 17v151l-87 -31v-162c0 -9 -8 -17 -17 -17s-17 8 -17 17v150l-39 -13c-10 -4 -21 4 -21 15v64c0 7 5 13 11 15l49 18v164l-39 -14c-10 -4 -21 4 -21 15v65c0 7 5 13 11 15l49 17v163c0 9 8 17 17 17s17 -8 17 -17v-151l87 31v162 c0 9 8 17 17 17s17 -8 17 -17v-150l39 13c10 4 21 -4 21 -15v-64c0 -7 -5 -13 -11 -15l-49 -18v-164l39 14c10 4 21 -4 21 -15v-65c0 -7 -5 -13 -11 -15l-49 -17v-163zM181 97l-87 -30v-164l87 30v164z" fill="currentColor"/>
<path transform="translate(8,  1.5) scale(0.0040, -0.0040)" d="M215 -316c0 -9 -8 -17 -17 -17s-17 8 -17 17v151l-87 -31v-162c0 -9 -8 -17 -17 -17s-17 8 -17 17v150l-39 -13c-10 -4 -21 4 -21 15v64c0 7 5 13 11 15l49 18v164l-39 -14c-10 -4 -21 4 -21 15v65c0 7 5 13 11 15l49 17v163c0 9 8 17 17 17s17 -8 17 -17v-151l87 31v162 c0 9 8 17 17 17s17 -8 17 -17v-150l39 13c10 4 21 -4 21 -15v-64c0 -7 -5 -13 -11 -15l-49 -18v-164l39 14c10 4 21 -4 21 -15v-65c0 -7 -5 -13 -11 -15l-49 -17v-163zM181 97l-87 -30v-164l87 30v164z" fill="currentColor"/>
<path transform="translate(10, 3  ) scale(0.0040, -0.0040)" d="M215 -316c0 -9 -8 -17 -17 -17s-17 8 -17 17v151l-87 -31v-162c0 -9 -8 -17 -17 -17s-17 8 -17 17v150l-39 -13c-10 -4 -21 4 -21 15v64c0 7 5 13 11 15l49 18v164l-39 -14c-10 -4 -21 4 -21 15v65c0 7 5 13 11 15l49 17v163c0 9 8 17 17 17s17 -8 17 -17v-151l87 31v162 c0 9 8 17 17 17s17 -8 17 -17v-150l39 13c10 4 21 -4 21 -15v-64c0 -7 -5 -13 -11 -15l-49 -18v-164l39 14c10 4 21 -4 21 -15v-65c0 -7 -5 -13 -11 -15l-49 -17v-163zM181 97l-87 -30v-164l87 30v164z" fill="currentColor"/>

<!-- Double bar line -->
<rect transform="translate(19.5, 2)" width="0.1" height="4" fill="currentColor"/>
<rect transform="translate(20, 2)" width="0.1" height="4" fill="currentColor"/>

</svg>